<svg xmlns="http://www.w3.org/2000/svg" viewBox="0 0 96 96"><defs><linearGradient id="bg" x1="0" y1="0" x2="0" y2="1"><stop offset="0" stop-color="#3a2a16"/><stop offset="1" stop-color="#120c07"/></linearGradient><linearGradient id="gold" x1="0" y1="0" x2="1" y2="1"><stop offset="0" stop-color="#ffe29a"/><stop offset="1" stop-color="#c8902c"/></linearGradient></defs><rect width="96" height="96" fill="url(#bg)"/><path d="M0 78 18 60l12 10 16-20 16 16 12-10 22 22v18H0z" fill="#1d140b" opacity=".9"/><path d="M0 86 22 70l14 10 18-14 18 12 24-10v28H0z" fill="#0c0805"/><g transform="rotate(-50 48 48)"><rect x="45.5" y="4" width="5" height="88" rx="2.5" fill="#6b1d12"/><rect x="45" y="4" width="6" height="10" rx="2" fill="url(#gold)"/><rect x="45" y="82" width="6" height="10" rx="2" fill="url(#gold)"/></g><path d="M22 40c8-12 44-12 52 0" stroke="url(#gold)" stroke-width="5" fill="none" stroke-linecap="round"/><path d="M22 40c-4 4-4 10 0 14M74 40c4 4 4 10 0 14" stroke="url(#gold)" stroke-width="4" fill="none" stroke-linecap="round"/><circle cx="48" cy="30" r="4" fill="#c8102e" stroke="url(#gold)" stroke-width="2"/></svg>
